<svg width="345" height="86" viewBox="0 0 345 86" fill="none" xmlns="http://www.w3.org/2000/svg">
<path d="M93.3896 34.7881C90.9694 37.891 88.7968 41.0245 86.873 44.1895C85.0113 47.3545 83.3985 50.5513 82.0332 53.7783C80.6679 56.9433 79.5812 60.1085 78.7744 63.2734C77.9677 66.3762 77.4406 69.4792 77.1924 72.582C76.9442 75.8711 77.1918 78.2606 77.9365 79.75C78.6812 81.1773 79.768 81.8906 81.1953 81.8906C83.9258 81.8906 86.4393 81.1773 88.7354 79.75C91.0936 78.3226 93.2037 76.4602 95.0654 74.1641C96.927 71.8061 98.5401 69.2308 99.9053 66.4385C101.271 63.5838 102.357 60.7595 103.164 57.9668C103.971 55.1743 104.498 52.63 104.746 50.334C102.76 49.3411 100.961 47.9134 99.3477 46.0518C97.7342 44.1901 96.9893 41.9559 97.1133 39.3496C97.2374 37.7361 97.7644 36.5562 98.6953 35.8115C99.6882 35.0669 100.743 34.6944 101.86 34.6943C104.094 34.6943 105.646 35.8428 106.515 38.1387C107.383 40.4348 107.663 43.4139 107.353 47.0752C106.98 50.6746 106.298 54.3053 105.305 57.9668C104.312 61.5662 102.977 65.0107 101.302 68.2998C99.6882 71.5889 97.7029 74.5371 95.3447 77.1436C93.0486 79.6879 90.4105 81.7049 87.4316 83.1943C84.515 84.6216 81.2565 85.335 77.6572 85.335C74.6165 85.3349 72.2585 84.7762 70.583 83.6592C68.9074 82.4801 67.7286 81.0218 67.0459 79.2842C66.3632 77.4845 66.0839 75.6538 66.208 73.792C66.3942 70.1927 67.48 66.4072 69.4658 62.4355C71.4516 58.4639 74.0889 54.4297 77.3779 50.334C80.7291 46.2381 84.5768 42.2656 88.9209 38.418C87.7419 38.7283 86.5628 39.2563 85.3838 40.001C84.2049 40.6835 83.088 41.397 82.0332 42.1416C80.9782 42.8863 79.9538 43.5382 78.9609 44.0967C77.968 44.5931 77.006 44.8418 76.0752 44.8418C74.8962 44.8418 73.9034 44.4999 73.0967 43.8174C72.2899 43.0727 71.3894 42.7002 70.3965 42.7002C69.4038 42.7002 68.5971 43.1037 67.9766 43.9102C67.418 44.6549 66.7969 46.0209 66.1143 48.0068L65.1836 51.1719H63.415L65.4629 44.376C66.5179 40.5904 67.8216 38.0464 69.373 36.7432C70.9864 35.44 72.5995 34.7882 74.2129 34.7881C75.392 34.7881 76.3856 35.0982 77.1924 35.7188C77.999 36.2772 78.8364 36.8361 79.7051 37.3945C80.5739 37.9531 81.6606 38.2324 82.9639 38.2324C84.329 38.2324 85.632 38.0461 86.873 37.6738C88.1763 37.2394 89.3869 36.5568 90.5039 35.626L91.4346 33.8574L93.3896 34.7881Z" fill="#574E49"/>
<path fill-rule="evenodd" clip-rule="evenodd" d="M142.659 34.7881C144.893 34.7881 146.755 35.3469 148.244 36.4639C149.733 37.5188 150.478 39.1319 150.479 41.3037C150.479 43.7861 149.764 46.1141 148.337 48.2861C146.972 50.396 145.11 52.3201 142.752 54.0576C140.394 55.7952 137.818 57.3467 135.025 58.7119C132.295 60.0771 129.534 61.2561 126.741 62.249C125.185 62.8148 123.719 63.3188 122.345 63.7637C121.801 66.5068 121.527 69.2294 121.527 71.9307C121.527 75.1575 122.118 77.4531 123.297 78.8184C124.538 80.1836 126.151 80.8671 128.137 80.8672C130.185 80.8672 132.45 80.2461 134.933 79.0049C137.415 77.7016 139.866 75.4053 142.286 72.1162L143.776 72.8613C142.535 74.9092 140.921 76.8946 138.936 78.8184C136.95 80.7422 134.684 82.3252 132.14 83.5664C129.657 84.7455 126.958 85.335 124.041 85.335C121.497 85.3349 119.232 84.8385 117.246 83.8457C115.26 82.8528 113.708 81.3945 112.591 79.4707C111.536 77.4849 111.009 75.0645 111.009 72.21C111.009 69.3552 111.505 66.2516 112.498 62.9004C113.553 59.4872 115.011 56.1357 116.873 52.8467C118.797 49.5576 121.063 46.5479 123.669 43.8174C126.275 41.0248 129.192 38.8215 132.419 37.208C135.646 35.5945 139.06 34.7881 142.659 34.7881ZM140.611 36.5566C139.122 36.5566 137.508 37.2393 135.771 38.6045C134.095 39.9698 132.419 41.8629 130.743 44.2832C129.068 46.6414 127.516 49.3411 126.089 52.3818C124.724 55.3606 123.607 58.5566 122.738 61.9697C122.737 61.9733 122.736 61.9769 122.735 61.9805C124.652 61.2447 126.453 60.4971 128.137 59.7354C130.805 58.5562 132.978 57.2842 134.653 55.9189C136.949 53.9952 138.75 51.7304 140.053 49.124C141.418 46.4555 142.101 43.5381 142.101 40.373C142.101 38.7598 141.976 37.7362 141.728 37.3018C141.479 36.8054 141.108 36.5568 140.611 36.5566Z" fill="#574E49"/>
<path d="M192.869 34.7881C195.848 34.7881 197.896 35.4707 199.013 36.8359C200.192 38.2012 200.72 39.9697 200.596 42.1416C200.534 44.2516 200.13 46.4865 199.386 48.8447L190.355 76.1191C189.735 77.7947 189.518 79.1291 189.704 80.1221C189.89 81.0529 190.573 81.5185 191.752 81.5186C192.807 81.5186 193.862 80.929 194.917 79.75C196.034 78.5709 197.213 76.2429 198.454 72.7676L199.851 68.9512H201.619L199.292 75.7471C198.423 78.3532 197.306 80.3389 195.941 81.7041C194.638 83.0694 193.241 84.0006 191.752 84.4971C190.325 85.0555 188.929 85.3349 187.563 85.335C186.012 85.335 184.708 85.0863 183.653 84.5898C182.598 84.0934 181.792 83.4107 181.233 82.542C180.489 81.3629 180.209 79.8738 180.396 78.0742C180.582 76.2125 181.078 74.1024 181.885 71.7441L190.542 45.5859C190.852 44.6552 191.101 43.6315 191.287 42.5146C191.473 41.3977 191.442 40.4356 191.193 39.6289C190.945 38.7601 190.169 38.3252 188.866 38.3252C187.501 38.3253 186.012 39.008 184.398 40.373C182.785 41.7383 181.078 43.6939 179.278 46.2383C177.541 48.7206 175.834 51.668 174.158 55.0811C172.483 58.4943 170.869 62.2181 169.317 66.252C168.007 69.607 166.786 73.1394 165.652 76.8486L163.825 84.0322H154.052L165.222 44.0039C165.47 43.1971 165.656 42.3898 165.78 41.583C165.966 40.7144 165.936 40.0008 165.688 39.4424C165.439 38.8839 164.85 38.6046 163.919 38.6045C162.678 38.6045 161.53 39.2256 160.475 40.4668C159.482 41.708 158.395 44.0036 157.216 47.3545L155.82 51.2646H154.052L156.379 44.376C157.744 40.5906 159.419 38.0464 161.405 36.7432C163.453 35.44 165.594 34.7881 167.828 34.7881C169.814 34.7881 171.272 35.1914 172.203 35.998C173.134 36.8048 173.693 37.8599 173.879 39.1631C174.127 40.4043 174.127 41.8011 173.879 43.3525C173.693 44.8418 173.413 46.3311 173.041 47.8203L169.924 60.0664C171.345 56.6138 172.724 53.5863 174.065 50.9854C176.175 46.9517 178.223 43.7557 180.209 41.3975C182.195 39.0392 184.212 37.3631 186.26 36.3701C188.37 35.3151 190.573 34.7881 192.869 34.7881Z" fill="#574E49"/>
<path fill-rule="evenodd" clip-rule="evenodd" d="M289.746 34.7881C291.98 34.7881 293.842 35.3468 295.331 36.4639C296.82 37.5188 297.565 39.1318 297.565 41.3037C297.565 43.7861 296.852 46.1141 295.425 48.2861C294.06 50.3961 292.197 52.32 289.839 54.0576C287.481 55.7951 284.906 57.3467 282.113 58.7119C279.383 60.0772 276.621 61.2561 273.828 62.249C272.272 62.8148 270.806 63.3188 269.432 63.7637C268.887 66.5068 268.615 69.2294 268.615 71.9307C268.615 75.1574 269.205 77.4531 270.384 78.8184C271.625 80.1837 273.239 80.8672 275.225 80.8672C277.272 80.8671 279.537 80.246 282.02 79.0049C284.502 77.7016 286.954 75.4053 289.374 72.1162L290.863 72.8613C289.622 74.9092 288.008 76.8946 286.022 78.8184C284.037 80.7421 281.772 82.3253 279.228 83.5664C276.745 84.7455 274.045 85.335 271.128 85.335C268.584 85.3349 266.319 84.8385 264.333 83.8457C262.347 82.8528 260.796 81.3944 259.679 79.4707C258.624 77.4849 258.096 75.0645 258.096 72.21C258.096 69.3552 258.592 66.2516 259.585 62.9004C260.64 59.4872 262.099 56.1358 263.961 52.8467C265.885 49.5577 268.15 46.5478 270.756 43.8174C273.362 41.0248 276.279 38.8215 279.506 37.208C282.733 35.5945 286.147 34.7881 289.746 34.7881ZM287.698 36.5566C286.209 36.5566 284.595 37.2392 282.857 38.6045C281.182 39.9698 279.507 41.8629 277.831 44.2832C276.155 46.6414 274.604 49.341 273.177 52.3818C271.811 55.3607 270.694 58.5565 269.825 61.9697C269.824 61.9733 269.823 61.9769 269.822 61.9805C271.739 61.2446 273.541 60.4971 275.225 59.7354C277.893 58.5563 280.065 57.2841 281.74 55.9189C284.036 53.9952 285.836 51.7304 287.14 49.124C288.505 46.4555 289.188 43.5381 289.188 40.373C289.187 38.7602 289.063 37.7364 288.815 37.3018C288.567 36.8053 288.195 36.5567 287.698 36.5566Z" fill="#574E49"/>
<path fill-rule="evenodd" clip-rule="evenodd" d="M332.695 76.0264C332.509 76.7089 332.323 77.4848 332.137 78.3535C332.013 79.1601 332.044 79.8736 332.23 80.4941C332.479 81.1147 333.068 81.4248 333.999 81.4248C335.116 81.4248 336.233 80.8353 337.35 79.6562C338.467 78.4151 339.584 76.0881 340.701 72.6748L342.005 68.8584H343.773L341.446 75.6533C340.577 78.1977 339.522 80.1533 338.281 81.5186C337.04 82.8838 335.706 83.8458 334.278 84.4043C332.913 85.0249 331.579 85.3349 330.275 85.335C327.545 85.335 325.621 84.4661 324.504 82.7285C323.697 81.3632 323.418 79.7187 323.666 77.7949C323.976 75.8091 324.411 73.7613 324.97 71.6514L326.045 67.543C324.747 70.5372 323.427 73.1171 322.084 75.2812C319.912 78.8186 317.677 81.3943 315.381 83.0078C313.085 84.5592 310.727 85.3349 308.307 85.335C305.204 85.335 302.877 84.3106 301.325 82.2627C299.774 80.1528 298.998 77.3916 298.998 73.9785C298.998 70.8756 299.494 67.5549 300.487 64.0176C301.542 60.4803 302.97 56.9742 304.77 53.499C306.631 50.0238 308.74 46.8893 311.099 44.0967C313.457 41.304 316.002 39.0701 318.732 37.3945C321.463 35.6569 324.193 34.7882 326.924 34.7881C329.034 34.7881 330.648 35.7808 331.765 37.7666C332.374 38.7611 332.741 39.9963 332.869 41.4717L334.278 36.0908C336.14 36.0288 337.94 35.9049 339.678 35.7188C341.415 35.5326 343.028 35.2224 344.518 34.7881L332.695 76.0264ZM327.297 37.1152C325.807 37.1152 324.224 37.8909 322.549 39.4424C320.873 40.9318 319.229 43.0112 317.615 45.6797C316.064 48.286 314.605 51.2336 313.24 54.5225C311.937 57.8116 310.913 61.2253 310.168 64.7627C309.423 68.2378 309.051 71.6509 309.051 75.002C309.051 77.4841 309.299 79.2219 309.796 80.2148C310.354 81.2078 311.099 81.7041 312.03 81.7041C313.395 81.704 314.916 80.8976 316.592 79.2842C318.267 77.6707 319.973 75.4673 321.711 72.6748C323.449 69.8201 325.062 66.5311 326.552 62.8076C328.041 59.0842 329.282 55.1125 330.275 50.8926L330.056 52.2207L331.68 46.0166C331.972 43.4618 331.754 41.3944 331.021 39.8145C330.276 38.0149 329.034 37.1154 327.297 37.1152Z" fill="#574E49"/>
<path d="M64.2314 18.125C63.4247 20.2971 62.7104 22.3764 62.0898 24.3623C61.4693 26.286 61.0036 27.8683 60.6934 29.1094C60.3831 30.2263 60.1037 31.3123 59.8555 32.3672C59.6693 33.3601 59.5147 34.1982 59.3906 34.8809H57.249C57.7455 31.2194 57.8703 28.3336 57.6221 26.2236C57.3738 24.0517 56.505 22.5309 55.0156 21.6621C53.5883 20.7312 51.2919 20.2656 48.127 20.2656H42.6348C40.5869 20.2656 38.9731 20.4519 37.7939 20.8242C36.6769 21.1345 35.7774 21.8488 35.0947 22.9658C34.4121 24.0208 33.7602 25.6961 33.1396 27.9922L27.249 49.9609H32.4883C34.474 49.9609 36.1187 49.5894 37.4219 48.8447C38.7251 48.038 39.8109 47.0136 40.6797 45.7725C41.6106 44.5313 42.3862 43.2276 43.0068 41.8623C43.6274 40.4971 44.1862 39.2249 44.6826 38.0459H46.8232C45.7062 41.335 44.9305 43.9107 44.4961 45.7725C44.0617 47.5721 43.6278 49.2791 43.1934 50.8926C42.8831 51.9475 42.6037 53.0334 42.3555 54.1504C42.1073 55.2673 41.7971 56.5704 41.4248 58.0596C41.1145 59.5489 40.742 61.4422 40.3076 63.7383H38.166C38.2901 62.3111 38.3833 60.9149 38.4453 59.5498C38.5694 58.1224 38.4763 56.8495 38.166 55.7324C37.8557 54.5537 37.2045 53.623 36.2119 52.9404C35.3392 52.2422 34.0023 51.8707 32.2021 51.8271L31.8359 51.8232H26.749L20.7588 74.1641C20.1382 76.3982 19.8588 78.0743 19.9209 79.1914C20.0451 80.3083 20.6038 81.0525 21.5967 81.4248C22.5896 81.7351 24.141 81.8906 26.251 81.8906H31.9297C35.653 81.8906 38.6629 81.3635 40.959 80.3086C43.2551 79.2536 45.2097 77.5466 46.8232 75.1885C48.4988 72.7682 50.1126 69.5099 51.6641 65.4141H53.8057C53.4954 66.2208 53.1536 67.2136 52.7812 68.3926C52.4089 69.5717 52.0671 70.813 51.7568 72.1162C51.4465 73.2953 51.0433 75.0022 50.5469 77.2363C50.0504 79.4084 49.6472 81.674 49.3369 84.0322C46.1719 83.9081 42.6036 83.8457 38.6318 83.8457C34.6601 83.7836 31.1225 83.7529 28.0195 83.7529H22.5273C20.3553 83.7529 17.9658 83.7836 15.3594 83.8457C12.753 83.8457 10.1157 83.8764 7.44727 83.9385C4.84079 83.9385 2.35824 83.9702 0 84.0322L0.46582 82.1699C2.57565 82.0458 4.22036 81.7971 5.39941 81.4248C6.57827 81.0524 7.47811 80.3082 8.09863 79.1914C8.78128 78.0743 9.43312 76.3982 10.0537 74.1641L22.4346 27.9922C23.0551 25.6962 23.3028 24.0208 23.1787 22.9658C23.1167 21.8488 22.5896 21.1038 21.5967 20.7314C20.6658 20.297 19.1452 20.0494 17.0352 19.9873L17.501 18.125C19.859 18.1871 22.3411 18.2495 24.9473 18.3115C27.6158 18.3115 30.2539 18.3422 32.8604 18.4043H54.8291C58.3044 18.3422 61.4388 18.2491 64.2314 18.125Z" fill="#574E49"/>
<path d="M277.942 6.6748C279.68 6.67486 280.983 7.2029 281.852 8.25781C282.72 9.25065 283.155 10.4605 283.155 11.8877C283.155 13.5011 282.69 14.9288 281.759 16.1699C280.828 17.4111 279.617 18.4354 278.128 19.2422C276.452 20.235 274.342 20.9801 271.798 21.4766C269.316 21.973 266.43 22.2207 263.141 22.2207C260.596 22.2207 258.021 22.0968 255.415 21.8486C255.244 21.832 255.073 21.8121 254.902 21.7949L241.266 73.2334C240.645 75.5296 240.396 77.3296 240.521 78.6328C240.645 79.8739 241.297 80.7735 242.476 81.332C243.717 81.8285 245.641 82.1079 248.247 82.1699L247.874 84.0322C246.136 83.9081 243.902 83.8457 241.172 83.8457C238.504 83.7837 235.742 83.7529 232.888 83.7529C230.033 83.7529 227.271 83.7836 224.603 83.8457C221.996 83.8457 219.917 83.9081 218.365 84.0322L218.737 82.1699C221.344 82.0458 223.361 81.7356 224.788 81.2393C226.278 80.6807 227.426 79.7802 228.232 78.5391C229.101 77.2358 229.877 75.4674 230.56 73.2334L244.615 20.5C243.095 20.3074 241.575 20.1356 240.055 19.9873C237.573 19.7391 235.184 19.6143 232.888 19.6143C230.902 19.6143 228.916 19.7074 226.93 19.8936C224.944 20.0797 223.423 20.5146 222.368 21.1973C223.237 21.7558 223.95 22.6246 224.509 23.8037C225.067 24.9208 225.347 26.0996 225.347 27.3408C225.347 28.8302 224.882 30.227 223.951 31.5303C223.02 32.8334 221.654 33.4844 219.854 33.4844C218.241 33.4843 217 32.9573 216.131 31.9023C215.324 30.8474 214.921 29.5436 214.921 27.9922C214.921 26.627 215.263 25.2309 215.945 23.8037C216.69 22.3143 218.118 21.073 220.228 20.0801C221.655 19.3976 223.175 18.9011 224.788 18.5908C226.464 18.2805 228.016 18.0943 229.443 18.0322C230.871 17.9702 231.957 17.9385 232.701 17.9385C236.425 17.9385 239.993 18.1564 243.406 18.5908C246.819 18.9632 250.202 19.3664 253.553 19.8008C256.904 20.1731 260.318 20.3594 263.793 20.3594C266.523 20.3594 268.82 20.2038 270.682 19.8936C272.308 19.6224 273.792 19.1848 275.135 18.582C274.582 18.0028 274.027 17.2617 273.474 16.3564C272.791 15.2394 272.45 13.9981 272.45 12.6328C272.45 11.0813 272.916 9.71622 273.847 8.53711C274.84 7.29602 276.205 6.6748 277.942 6.6748Z" fill="#574E49"/>
<path fill-rule="evenodd" clip-rule="evenodd" d="M117.081 0C118.768 0 120.214 0.39573 121.419 1.1875C122.641 1.96205 123.57 3.05543 124.207 4.4668C124.861 5.87818 125.188 7.50501 125.188 9.34668C125.188 11.171 124.861 12.7807 124.207 14.1748C123.57 15.5687 122.641 16.6614 121.419 17.4531C120.214 18.2277 118.768 18.6152 117.081 18.6152C115.394 18.6152 113.94 18.2277 112.718 17.4531C111.496 16.6614 110.567 15.5687 109.93 14.1748C109.293 12.7635 108.975 11.1538 108.975 9.34668C108.975 7.52217 109.293 5.9036 109.93 4.49219C110.584 3.08092 111.513 1.97921 112.718 1.1875C113.94 0.395764 115.394 1.55179e-05 117.081 0ZM117.081 1.65234C115.807 1.65236 114.698 1.9798 113.751 2.63379C112.822 3.27065 112.098 4.17428 111.582 5.34473C111.083 6.49787 110.833 7.82298 110.833 9.32031C110.833 10.8178 111.083 12.1436 111.582 13.2969C112.098 14.4499 112.822 15.3447 113.751 15.9814C114.698 16.6182 115.807 16.9365 117.081 16.9365C118.355 16.9365 119.456 16.6183 120.386 15.9814C121.332 15.3446 122.056 14.45 122.555 13.2969C123.071 12.1437 123.329 10.8095 123.329 9.29492C123.329 7.79744 123.071 6.47159 122.555 5.31836C122.056 4.16524 121.332 3.27061 120.386 2.63379C119.456 1.97972 118.355 1.65234 117.081 1.65234Z" fill="#574E49"/>
<path fill-rule="evenodd" clip-rule="evenodd" d="M97.9238 0.387695C99.4041 0.387695 100.61 0.680403 101.539 1.26562C102.468 1.85079 103.131 2.58229 103.526 3.45996C103.922 4.33777 104.12 5.25879 104.12 6.22266C104.12 7.18643 103.922 8.10762 103.526 8.98535C103.13 9.8629 102.468 10.5946 101.539 11.1797C100.627 11.7477 99.4213 12.0312 97.9238 12.0312H93.6895V18.46H91.96V0.387695H97.9238ZM93.6895 10.457H97.7432C99.0513 10.457 100.153 10.1378 101.048 9.50098C101.943 8.86416 102.391 7.7716 102.391 6.22266C102.391 4.69075 101.943 3.60561 101.048 2.96875C100.153 2.33207 99.0511 2.01367 97.7432 2.01367H93.6895V10.457Z" fill="#574E49"/>
<path fill-rule="evenodd" clip-rule="evenodd" d="M137.252 0.387695C138.732 0.387698 139.937 0.654045 140.866 1.1875C141.796 1.72101 142.459 2.39234 142.854 3.20117C143.25 4.01005 143.448 4.85373 143.448 5.73145C143.448 6.9879 143.052 8.12415 142.261 9.13965C141.486 10.138 140.238 10.7407 138.517 10.9473L143.525 18.46H141.538L136.581 11.0244H133.069V18.46H131.288V0.387695H137.252ZM133.069 9.47559H137.071C138.379 9.47557 139.481 9.19104 140.376 8.62305C141.271 8.05502 141.719 7.09113 141.719 5.73145C141.719 4.37191 141.271 3.41698 140.376 2.86621C139.481 2.29822 138.379 2.01368 137.071 2.01367H133.069V9.47559Z" fill="#574E49"/>
<path d="M161.379 2.01367H155.905V18.46H154.124V2.01367H148.65V0.387695H161.379V2.01367Z" fill="#574E49"/>
<path fill-rule="evenodd" clip-rule="evenodd" d="M179.807 18.46H177.999L175.908 12.9355H168.137L166.071 18.46H164.264L171.132 0.387695H172.861L179.807 18.46ZM168.679 11.4639H175.365L172.035 2.68555H171.932L168.679 11.4639Z" fill="#574E49"/>
<path d="M187.232 16.834H195.908V18.46H185.478L185.451 0.387695H187.259L187.232 16.834Z" fill="#574E49"/>
</svg>
